<svg xmlns="http://www.w3.org/2000/svg" viewBox="0 0 960 600" role="img" aria-labelledby="title desc">
  <title id="title">Telescope observing galaxies</title>
  <desc id="desc">A stylized telescope under a night sky with distant galaxies and stars.</desc>
  <rect width="960" height="600" fill="#101820"/>
  <rect y="385" width="960" height="215" fill="#176b68"/>
  <path d="M0 404c110-35 210-42 305-22 111 23 174 70 296 48 119-21 201-90 359-36v206H0z" fill="#0f4c4a"/>
  <circle cx="748" cy="118" r="58" fill="#f7f5ef"/>
  <circle cx="724" cy="100" r="58" fill="#101820"/>
  <g fill="#f7f5ef" opacity=".9">
    <circle cx="118" cy="98" r="4"/>
    <circle cx="214" cy="166" r="3"/>
    <circle cx="316" cy="76" r="4"/>
    <circle cx="474" cy="138" r="3"/>
    <circle cx="565" cy="64" r="4"/>
    <circle cx="848" cy="218" r="3"/>
    <circle cx="696" cy="260" r="4"/>
    <circle cx="104" cy="278" r="3"/>
  </g>
  <ellipse cx="232" cy="236" rx="116" ry="34" fill="none" stroke="#b7832f" stroke-width="12" transform="rotate(-18 232 236)"/>
  <ellipse cx="232" cy="236" rx="44" ry="13" fill="#f7f5ef" opacity=".85" transform="rotate(-18 232 236)"/>
  <ellipse cx="578" cy="235" rx="134" ry="42" fill="none" stroke="#d9dedb" stroke-width="11" transform="rotate(16 578 235)"/>
  <ellipse cx="578" cy="235" rx="50" ry="16" fill="#9fb5af" transform="rotate(16 578 235)"/>
  <path d="M356 360l185-90 38 78-185 90z" fill="#d9dedb"/>
  <path d="M520 270l86-42 38 78-86 42z" fill="#b7832f"/>
  <path d="M333 369l58-28 38 78-58 28z" fill="#f7f5ef"/>
  <circle cx="476" cy="366" r="22" fill="#1e2528"/>
  <path d="M476 388v111M476 388l-82 116M476 388l88 116" stroke="#1e2528" stroke-width="14" stroke-linecap="round"/>
  <rect x="320" y="502" width="314" height="18" rx="9" fill="#1e2528"/>
  <path d="M58 535h844" stroke="#f7f5ef" stroke-width="9" stroke-linecap="round" opacity=".5"/>
</svg>
